<?xml version="1.0" encoding="utf-8"?>
<!-- Generator: Adobe Illustrator 19.2.1, SVG Export Plug-In . SVG Version: 6.00 Build 0)  -->
<svg version="1.1" id="Layer_1" xmlns="http://www.w3.org/2000/svg" xmlns:xlink="http://www.w3.org/1999/xlink" x="0px" y="0px"
	 viewBox="0 0 240.9 153.1" style="enable-background:new 0 0 240.9 153.1;" xml:space="preserve">
<style type="text/css">
	.st0{fill:#4AC7F0;}
</style>
<path d="M59.4,87.3l-5.7-17.9H59c1.8,6.9,2.8,11.2,3.1,13c0.2-1.4,0.7-3.8,1.7-7.1l1.7-5.9h4.4c2,6.8,3.1,11.1,3.4,13
	c0.2-1.4,0.7-3.8,1.7-7.1l1.7-5.9h5.1L76,87.3h-5.3c-1.7-6.5-2.7-10.7-3-12.5c-0.2,1.6-0.7,3.8-1.5,6.6l-1.6,5.9H59.4z"/>
<path class="st0" d="M28,56.7C17,56.7,8.1,65.6,8.1,76.5S17,96.4,28,96.4c10.9,0,19.8-8.9,19.8-19.8S38.9,56.7,28,56.7z M35,84.1
	c-4.3-5.2-7-8.5-8-10.1c0.4,1.5,0.9,3.7,1.4,6.6l1.1,6l-4.8,2.2L12,75.1l4.8-2.2c4.5,5.5,7.3,9,8.3,10.5c-0.4-1.3-0.9-3.7-1.4-7.2
	l-0.9-6.1l4-1.9c4.6,5.3,7.5,8.8,8.5,10.4c-0.4-1.3-0.9-3.7-1.5-7.2l-1-6l4.6-2.1l2.3,18.6L35,84.1z"/>
<path d="M98.1,86.3c-1.2,0.8-3.2,1.2-5.9,1.2c-2.7,0-4.9-0.9-6.5-2.6c-1.6-1.7-2.5-3.9-2.5-6.7c0-2.8,0.8-5,2.4-6.6
	c1.6-1.6,3.6-2.4,5.9-2.4c2.4,0,4.2,0.7,5.6,2.1c1.4,1.4,2.1,3.5,2.1,6.3c0,0.5-0.1,1.5-0.3,2.8H88.4c0.4,1,1,1.8,1.8,2.3
	c0.9,0.5,1.9,0.8,3.1,0.8c1.8,0,3.4-0.5,4.7-1.5V86.3z M94.4,76.7v-0.4c-0.2-2.1-1.1-3.1-2.8-3.1c-0.8,0-1.6,0.3-2.2,0.9
	c-0.6,0.6-1.1,1.5-1.3,2.7H94.4z"/>
<path d="M108,62.4v9.8c1.2-2,3-3,5.3-3c2.3,0,4.2,0.8,5.6,2.4c1.5,1.6,2.2,3.8,2.2,6.4c0,2.7-0.7,4.9-2.1,6.7
	c-1.4,1.8-3.3,2.7-5.6,2.7c-2.4,0-4.1-1-5.3-3v2.8h-5.2V62.4H108z M108,78.2c0,1.5,0.4,2.7,1.1,3.6c0.7,0.9,1.7,1.4,2.8,1.4
	s2.1-0.4,2.8-1.3c0.8-0.9,1.1-2.1,1.1-3.6c0-1.5-0.4-2.7-1.1-3.5c-0.7-0.9-1.7-1.3-2.7-1.3c-1.1,0-2,0.4-2.8,1.2
	C108.4,75.5,108,76.7,108,78.2z"/>
<path d="M140.6,78.4c0,2.7-0.8,4.9-2.3,6.6c-1.5,1.7-3.6,2.6-6.2,2.6c-2.6,0-4.6-0.9-6.1-2.6c-1.5-1.7-2.2-3.9-2.2-6.6
	c0-2.6,0.8-4.9,2.3-6.6c1.5-1.8,3.6-2.7,6.2-2.7c2.6,0,4.6,0.9,6.1,2.6C139.8,73.5,140.6,75.7,140.6,78.4z M137.7,78.4
	c0-1.9-0.5-3.6-1.4-4.8c-0.9-1.3-2.3-1.9-4.1-1.9c-1.8,0-3.2,0.7-4.1,2c-1,1.3-1.4,2.9-1.4,4.8c0,1.9,0.5,3.5,1.5,4.8
	c1,1.3,2.3,2,4.1,2c1.7,0,3.1-0.6,4-1.9C137.2,82,137.7,80.3,137.7,78.4z"/>
<path d="M147.4,62.4v10.2c1.1-2.2,2.9-3.4,5.6-3.4c1.7,0,3.1,0.5,4.1,1.6c1,1.1,1.6,2.5,1.6,4.3v12.2H156V75.7c0-1.3-0.3-2.3-1-3
	c-0.7-0.7-1.6-1.1-2.8-1.1c-1.2,0-2.3,0.5-3.3,1.5c-1,1-1.5,2.5-1.5,4.3v9.8h-2.8V62.4H147.4z"/>
<path d="M179.4,78.4c0,2.7-0.8,4.9-2.3,6.6c-1.5,1.7-3.6,2.6-6.2,2.6c-2.6,0-4.6-0.9-6.1-2.6c-1.5-1.7-2.2-3.9-2.2-6.6
	c0-2.6,0.8-4.9,2.3-6.6c1.5-1.8,3.6-2.7,6.2-2.7c2.6,0,4.6,0.9,6.1,2.6C178.7,73.5,179.4,75.7,179.4,78.4z M176.5,78.4
	c0-1.9-0.5-3.6-1.4-4.8c-0.9-1.3-2.3-1.9-4.1-1.9c-1.8,0-3.2,0.7-4.1,2c-1,1.3-1.4,2.9-1.4,4.8c0,1.9,0.5,3.5,1.5,4.8
	c1,1.3,2.3,2,4.1,2c1.7,0,3.1-0.6,4-1.9C176.1,82,176.5,80.3,176.5,78.4z"/>
<path d="M183.7,87.3V62.4h2.8v24.9H183.7z"/>
<path d="M192,65.1c-0.3-0.3-0.5-0.8-0.5-1.3c0-0.5,0.2-1,0.5-1.3c0.3-0.4,0.8-0.5,1.3-0.5c0.5,0,1,0.2,1.3,0.5
	c0.4,0.4,0.5,0.8,0.5,1.3c0,0.5-0.2,0.9-0.5,1.3c-0.4,0.3-0.8,0.5-1.3,0.5C192.7,65.6,192.3,65.4,192,65.1z M191.9,87.3V69.4h2.8
	v17.9H191.9z"/>
<path d="M208.5,85.2c1.4,0,2.6-0.4,3.8-1.2v2.6c-1.1,0.7-2.5,1-4.2,1c-2.8,0-5.1-0.9-6.7-2.7c-1.7-1.8-2.5-4-2.5-6.5
	c0-2.6,0.8-4.8,2.5-6.6c1.7-1.8,3.9-2.8,6.8-2.8c1.5,0,2.9,0.3,4.1,1v2.6c-1.1-0.7-2.4-1.1-3.8-1.1c-2,0-3.6,0.7-4.9,2
	c-1.2,1.3-1.8,2.9-1.8,4.9c0,1.9,0.6,3.5,1.7,4.8C204.7,84.6,206.3,85.2,208.5,85.2z"/>
<path d="M221.9,71.7c-0.9,0-1.7,0.2-2.2,0.7c-0.6,0.4-0.8,0.9-0.8,1.5c0,0.6,0.1,1,0.2,1.3c0.2,0.3,0.5,0.6,1,0.9
	c0.6,0.4,1.5,0.8,2.8,1.4c1.3,0.6,2.4,1.2,3.2,2c0.8,0.8,1.3,1.9,1.3,3.3c0,1.4-0.5,2.6-1.6,3.5c-1.1,0.9-2.6,1.3-4.6,1.3
	c-2,0-3.7-0.4-5-1.1v-2.7c1.6,0.9,3.3,1.4,5.1,1.4c1.1,0,1.9-0.2,2.5-0.6c0.6-0.4,0.8-1,0.8-1.8c0-0.8-0.3-1.4-0.9-1.9
	c-0.6-0.5-1.6-1-3-1.5c-1.4-0.6-2.5-1.2-3.3-2c-0.8-0.8-1.2-1.9-1.2-3.3c0-1.4,0.6-2.5,1.7-3.4c1.1-0.9,2.6-1.3,4.3-1.3
	c1.8,0,3.2,0.3,4.3,0.8v2.6C225.2,72,223.7,71.7,221.9,71.7z"/>
</svg>
